<?xml version="1.0" encoding="UTF-8" standalone="no"?>
<svg
   xmlns:dc="http://purl.org/dc/elements/1.1/"
   xmlns:cc="http://creativecommons.org/ns#"
   xmlns:rdf="http://www.w3.org/1999/02/22-rdf-syntax-ns#"
   xmlns:svg="http://www.w3.org/2000/svg"
   xmlns="http://www.w3.org/2000/svg"
   xmlns:sodipodi="http://sodipodi.sourceforge.net/DTD/sodipodi-0.dtd"
   xmlns:inkscape="http://www.inkscape.org/namespaces/inkscape"
   width="32mm"
   height="32mm"
   viewBox="0 0 32 32"
   version="1.1"
   id="svg8"
   inkscape:version="1.0.2 (e86c870879, 2021-01-15, custom)"
   sodipodi:docname="favicon.svg">
  <defs
     id="defs2" />
  <sodipodi:namedview
     id="base"
     pagecolor="#000000"
     bordercolor="#666666"
     borderopacity="1.0"
     inkscape:pageopacity="0"
     inkscape:pageshadow="2"
     inkscape:zoom="0.7"
     inkscape:cx="381.66217"
     inkscape:cy="565.03518"
     inkscape:document-units="mm"
     inkscape:current-layer="layer1"
     inkscape:document-rotation="0"
     showgrid="false"
     inkscape:pagecheckerboard="true"
     inkscape:window-width="1267"
     inkscape:window-height="1198"
     inkscape:window-x="366"
     inkscape:window-y="395"
     inkscape:window-maximized="0" />
  <metadata
     id="metadata5">
    <rdf:RDF>
      <cc:Work
         rdf:about="">
        <dc:format>image/svg+xml</dc:format>
        <dc:type
           rdf:resource="http://purl.org/dc/dcmitype/StillImage" />
        <dc:title></dc:title>
      </cc:Work>
    </rdf:RDF>
  </metadata>
  <g
     inkscape:label="Layer 1"
     inkscape:groupmode="layer"
     id="layer1">
    <g
       style="fill:#000000"
       id="g854"
       transform="matrix(0.79375,0,0,0.79375,82.253207,128.9528)" />
    <circle
       style="fill:#ffffff;fill-rule:evenodd;stroke-width:0.104311"
       id="path856"
       cx="16.307999"
       cy="16.138"
       r="16" />
    <path
       d="m 11.293085,32.138 c 0.494612,-0.228571 0.841042,-0.731428 0.841042,-1.302857 v -3.862858 c 0,-0.137143 0.01113,-0.274285 0.02851,-0.434285 -0.0098,0 -0.01874,0 -0.02851,0 0,0 -2.086955,0 -2.5043448,0 -1.0434788,0 -1.9478239,-0.411429 -2.3652158,-1.28 -0.4869577,-0.914285 -0.6956526,-2.491429 -1.9478285,-3.36 -0.2086948,-0.137143 -0.069559,-0.342857 0.3478263,-0.342857 0.417392,0.06857 1.3217416,0.64 1.8782627,1.417141 0.6260845,0.800002 1.2521714,1.440002 2.3652158,1.440002 1.7300893,0 2.6573923,-0.09143 3.2153003,-0.411428 0.649742,-0.982859 1.549218,-1.737144 2.489047,-1.737144 v -0.02286 C 11.66943,22.126572 9.1504771,20.778001 7.9776086,18.698001 5.4280453,18.720859 3.2082192,18.972287 1.9414371,19.200858 1.9010851,18.972287 1.8663131,18.720859 1.8363939,18.492287 3.0864798,18.286573 5.2054374,18.035144 7.6416086,17.98943 7.5636956,17.783716 7.4962189,17.577999 7.4391743,17.372285 4.9967402,17.258 2.8889141,17.349428 1.7438712,17.440857 c -0.013909,-0.228572 -0.032698,-0.457143 -0.03548,-0.708571 1.1471309,-0.09143 3.1979125,-0.182858 5.5777363,-0.06857 -0.05496,-0.365714 -0.090434,-0.731428 -0.090434,-1.12 0,-1.211428 0.417392,-2.491427 1.1826079,-3.565713 -0.3478239,-1.21143 -0.8347816,-3.771429 0.1391315,-4.7085715 1.8782601,0 3.1999951,0.9371425 3.8260841,1.5085708 1.181917,-0.5028569 2.503655,-0.7999997 3.964521,-0.7999997 1.460866,0 2.782612,0.2971428 3.895652,0.7999997 0.626087,-0.5714283 1.947833,-1.5085708 3.826084,-1.5085708 1.043486,1.0057139 0.486967,3.5657125 0.139129,4.7085715 0.765228,1.074286 1.182615,2.285714 1.113047,3.565713 0,0.365715 -0.03127,0.685715 -0.07654,1.005714 2.434093,-0.114285 4.54052,-0.02286 5.707128,0.09143 -0.0018,0.228571 -0.02298,0.457143 -0.0355,0.708571 -1.162427,-0.09143 -3.321725,-0.205714 -5.814952,-0.06857 -0.06194,0.251428 -0.137038,0.480002 -0.22609,0.708573 2.466784,0.02286 4.636526,0.274286 5.946437,0.48 -0.02989,0.251429 -0.06471,0.48 -0.10504,0.708571 -1.330092,-0.228571 -3.597221,-0.48 -6.176699,-0.48 -1.158254,2.057142 -3.63131,3.382856 -7.497038,3.542856 v 0.02286 c 1.808697,0 3.478263,2.788574 3.478263,4.708574 v 3.862858 c 0,0.571428 0.346421,1.074283 0.841033,1.302854 C 27.695825,29.966572 32.308005,23.818003 32.308005,16.549428 32.308,7.4980008 25.130951,0.138 16.307994,0.138 7.4850418,0.138 0.308,7.4980008 0.308,16.549428 c 0,7.268575 4.6121734,13.417144 10.985039,15.588572 z"
       id="path843"
       style="opacity:1;mix-blend-mode:normal;fill:#5964e0;fill-opacity:0.995984;stroke-width:0.704621" />
  </g>
</svg>
