<svg fill="#000000" xmlns="http://www.w3.org/2000/svg"  viewBox="0 0 26 26" width="208px" height="208px"><path d="M13,0.188C5.924,0.188,0.188,5.924,0.188,13S5.924,25.813,13,25.813S25.813,20.076,25.813,13 S20.076,0.188,13,0.188z M13,23.813C7.038,23.813,2.188,18.962,2.188,13S7.038,2.188,13,2.188S23.813,7.038,23.813,13 S18.962,23.813,13,23.813z"/><path fill="none" stroke="#000000" stroke-linecap="round" stroke-linejoin="round" stroke-miterlimit="10" stroke-width=".25" d="M20.162 14.484c0 0 1.285-.221 2.053-.21.768.01 1.641.242 1.641.242M19.836 14.897c0 0 1.473-.131 2.084-.116.842.021 1.746.284 1.746.284M6.635 14.412c0 0-1.826-.173-2.395-.173s-1.654.173-2.172.321M7.055 14.979c0 0-1.92-.178-2.789-.073-1.037.123-1.951.666-1.951.666"/><path d="M6.306,13.002c0-3.073,3.219-5.891,7.189-5.891s7.189,2.817,7.189,5.891c0,3.074-2.309,5.243-7.189,5.243 S6.306,16.076,6.306,13.002z"/><path d="M16.209 7.703c0 0 1.133-1.562 3.211-1.562.833.832.263 3.212-.006 3.922L16.209 7.703zM10.855 7.703c0 0-1.133-1.562-3.211-1.562C6.812 6.974 7.382 9.354 7.65 10.063L10.855 7.703zM10.375 20.996c0 0-1.587 0-1.883 0-.821 0-1.551-.353-1.905-1.009-.393-.729-.765-1.551-1.739-2.233-.17-.119-.073-.294.26-.259.331.038.957.111 1.437.737.478.627.998 1.344 1.891 1.344s1.853.023 2.343-.615L10.375 20.996z"/><path d="M14.294,17.688h-1.588c-1.495,0-2.706,2.13-2.706,3.625v2.734c0,0.845,0.395,1.186,1,1.33v-3.268 c0-0.276,0.224-0.5,0.5-0.5s0.5,0.224,0.5,0.5v3.37c0.227,0.004,0.46,0.005,0.706,0.005H13V21.5c0-0.276,0.224-0.5,0.5-0.5 s0.5,0.224,0.5,0.5v3.984h0.294c0.246,0,0.479-0.001,0.706-0.005v-3.37c0-0.276,0.224-0.5,0.5-0.5s0.5,0.224,0.5,0.5v3.268 c0.605-0.145,1-0.485,1-1.33v-2.734C17,19.817,15.789,17.688,14.294,17.688z"/></svg>