<?xml version="1.0" encoding="UTF-8" standalone="no"?>
<svg
   xmlns:dc="http://purl.org/dc/elements/1.1/"
   xmlns:cc="http://creativecommons.org/ns#"
   xmlns:rdf="http://www.w3.org/1999/02/22-rdf-syntax-ns#"
   xmlns:svg="http://www.w3.org/2000/svg"
   xmlns="http://www.w3.org/2000/svg"
   xmlns:sodipodi="http://sodipodi.sourceforge.net/DTD/sodipodi-0.dtd"
   xmlns:inkscape="http://www.inkscape.org/namespaces/inkscape"
   width="140mm"
   height="140mm"
   viewBox="0 0 140 140"
   version="1.1"
   id="svg8"
   inkscape:version="1.0.2 (e86c870879, 2021-01-15, custom)"
   sodipodi:docname="icons8-github-darktheme.svg">
  <defs
     id="defs2" />
  <sodipodi:namedview
     id="base"
     pagecolor="#000000"
     bordercolor="#666666"
     borderopacity="1.0"
     inkscape:pageopacity="0"
     inkscape:pageshadow="2"
     inkscape:zoom="0.7"
     inkscape:cx="381.66217"
     inkscape:cy="565.03518"
     inkscape:document-units="mm"
     inkscape:current-layer="layer1"
     inkscape:document-rotation="0"
     showgrid="false"
     inkscape:pagecheckerboard="true"
     inkscape:window-width="1267"
     inkscape:window-height="1198"
     inkscape:window-x="366"
     inkscape:window-y="395"
     inkscape:window-maximized="0" />
  <metadata
     id="metadata5">
    <rdf:RDF>
      <cc:Work
         rdf:about="">
        <dc:format>image/svg+xml</dc:format>
        <dc:type
           rdf:resource="http://purl.org/dc/dcmitype/StillImage" />
        <dc:title></dc:title>
      </cc:Work>
    </rdf:RDF>
  </metadata>
  <g
     inkscape:label="Layer 1"
     inkscape:groupmode="layer"
     id="layer1">
    <g
       style="fill:#000000"
       id="g854"
       transform="matrix(0.79375,0,0,0.79375,82.253207,128.9528)" />
    <circle
       style="fill:#ffffff;fill-rule:evenodd;stroke-width:0.456362"
       id="path856"
       cx="70.307999"
       cy="70.138"
       r="70" />
    <path
       d="m 48.36775,140.13805 c 2.16393,-1 3.67956,-3.2 3.67956,-5.7 v -16.90001 c 0,-0.6 0.0487,-1.2 0.12472,-1.9 -0.0427,0 -0.082,0 -0.12472,0 0,0 -9.13043,0 -10.95651,0 -4.56522,0 -8.52173,-1.8 -10.34782,-5.6 -2.13044,-4 -3.04348,-10.900005 -8.52175,-14.700005 -0.91304,-0.6 -0.30432,-1.5 1.52174,-1.5 1.82609,0.3 5.78262,2.8 8.2174,6.199995 2.73912,3.50001 5.47825,6.30001 10.34782,6.30001 7.56914,0 11.62609,-0.4 14.06694,-1.8 2.84262,-4.30001 6.77783,-7.600005 10.88958,-7.600005 v -0.1 c -17.25045,-0.5 -28.27087,-6.4 -33.40217,-15.5 -11.15434,0.1 -20.866081,1.2 -26.408252,2.2 -0.176541,-1 -0.328667,-2.1 -0.459564,-3.1 5.469128,-0.9 14.739566,-2 25.397816,-2.2 -0.34087,-0.9 -0.63608,-1.80001 -0.88565,-2.70001 -10.68565,-0.5 -19.907386,-0.1 -24.916953,0.3 -0.06085,-1 -0.143055,-2 -0.155225,-3.1 5.018694,-0.4 13.990868,-0.8 24.402598,-0.3 -0.24045,-1.6 -0.39565,-3.2 -0.39565,-4.9 0,-5.3 1.82609,-10.9 5.17391,-15.6 -1.52173,-5.30001 -3.65217,-16.50001 0.6087,-20.60001 8.21739,0 13.99998,4.1 16.73912,6.6 5.17089,-2.2 10.95349,-3.5 17.344779,-3.5 6.39129,0 12.17393,1.3 17.043478,3.5 2.73913,-2.5 8.52177,-6.6 16.739123,-6.6 4.56525,4.4 2.13048,15.6 0.60869,20.60001 3.34787,4.7 5.17394,10 4.86958,15.6 0,1.6 -0.13682,3 -0.33487,4.4 10.64916,-0.5 19.86478,-0.1 24.96869,0.4 -0.008,1 -0.10053,2 -0.15533,3.1 -5.08562,-0.4 -14.53255,-0.9 -25.44042,-0.3 -0.27099,1.1 -0.59954,2.10001 -0.98914,3.10001 10.79218,0.1 20.2848,1.2 26.01566,2.1 -0.13077,1.1 -0.28309,2.1 -0.45955,3.1 -5.81915,-1 -15.73784,-2.1 -27.02306,-2.1 -5.06736,9 -15.886983,14.8 -32.799541,15.5 v 0.1 c 7.91305,0 15.217398,12.200015 15.217398,20.600015 v 16.90001 c 0,2.5 1.51559,4.69999 3.67952,5.69999 27.881323,-9.5 48.059613,-36.4 48.059613,-68.200025 C 140.30801,32.338015 108.90842,0.138 70.30798,0.138 31.70756,0.138 0.308,32.338015 0.308,71.938025 c 0,31.800025 20.17826,58.700025 48.05955,68.200025 z"
       id="path843"
       style="opacity:1;mix-blend-mode:normal;fill:#5964e0;fill-opacity:0.995984;stroke-width:3.08272" />
  </g>
</svg>
